<svg width="46" height="29" viewBox="0 0 46 29" fill="none" xmlns="http://www.w3.org/2000/svg">
<path fill-rule="evenodd" clip-rule="evenodd" d="M24.9415 23.2C23.3245 23.2 22.0045 24.5034 22.0045 26.1C22.0045 27.6966 23.3245 29 24.9415 29C26.5584 29 27.8784 27.6966 27.8784 26.1C27.8784 24.5034 26.5584 23.2 24.9415 23.2ZM24.9415 11.6H36.6892C38.3062 11.6 39.6261 12.9033 39.6261 14.5C39.6261 16.0966 38.3062 17.4 36.6892 17.4H24.9415C23.3245 17.4 22.0045 16.0966 22.0045 14.5C22.0045 12.9033 23.3245 11.6 24.9415 11.6ZM42.5631 5.80003H15.1847C10.3448 5.80003 6.37387 9.71008 6.37387 14.5C6.37387 19.2899 10.3448 23.2 15.1847 23.2C16.8016 23.2 18.1216 24.5034 18.1216 26.1C18.1216 27.6966 16.8016 29 15.1847 29C7.11085 29 0.5 22.4722 0.5 14.5C0.5 6.52769 7.11085 0 15.1847 0H42.5631C44.18 0 45.5 1.30335 45.5 2.89998C45.5 4.49661 44.18 5.80003 42.5631 5.80003Z" fill="url(#paint0_linear_507_27372)"/>
<defs>
<linearGradient id="paint0_linear_507_27372" x1="20.5" y1="-0.00732396" x2="24.5" y2="33.4927" gradientUnits="userSpaceOnUse">
<stop stop-color="#03DAC5"/>
<stop offset="1" stop-color="#6200EE"/>
</linearGradient>
</defs>
</svg>
